# xmcd
#
# Track frame offsets: 
#        150
#        16422
#        34355
#
# Disc length: 696 seconds
#
# Revision: 0
# Processed by: cddbd v1.5.2PL0 Copyright (c) Steve Scherf et al.
# Submitted via: ExactAudioCopy v1.0b3
#
DISCID=1e02b603
DTITLE=Nelly Furtado - Turn Off The Light
DYEAR=2001
DGENRE=R&B
TTITLE0=Turn Off The Light (Radio Edit)
TTITLE1=Turn Off The Light (Sunshine Reggae Mix)
TTITLE2=I'M Like A Bird (Acoustic)
EXTD=
EXTT0=
EXTT1=
EXTT2=
PLAYORDER=
